<svg width="58" height="58" viewBox="0 0 58 58" fill="none" xmlns="http://www.w3.org/2000/svg">
<path d="M32 0C30.979 0 29.975 0.076 28.985 0.21C27.953 0.072 26.972 0 26 0C18.638 0 11.999 3.571 7.34 9.264C7.293 9.306 7.259 9.356 7.221 9.406C5.736 11.245 4.46 13.304 3.428 15.532C3.402 15.581 3.379 15.629 3.36 15.682C2.649 17.239 2.056 18.875 1.6 20.579C1.555 20.675 1.535 20.78 1.522 20.889C0.861 23.465 0.5 26.185 0.5 29C0.5 33.404 1.372 37.579 2.923 41.321C2.937 41.361 2.95 41.399 2.969 41.437C3.899 43.655 5.069 45.717 6.442 47.582C6.477 47.63 6.506 47.681 6.549 47.722C7.939 49.587 9.532 51.248 11.289 52.664C11.339 52.719 11.399 52.76 11.461 52.803C15.588 56.075 20.599 58 26 58C26.972 58 27.953 57.928 28.985 57.79C29.975 57.924 30.979 58 32 58C46.061 58 57.5 44.991 57.5 29C57.5 13.009 46.061 0 32 0ZM21.44 2.614C21.109 2.786 20.782 2.966 20.459 3.153C20.278 3.258 20.096 3.359 19.918 3.469C19.641 3.639 19.37 3.819 19.1 4H17.175C18.637 3.316 20.163 2.777 21.754 2.442C21.647 2.495 21.546 2.559 21.44 2.614ZM11.36 46H7.774C6.892 44.754 6.109 43.415 5.429 42H9.217C9.374 42.354 9.535 42.705 9.704 43.051C9.777 43.2 9.853 43.347 9.929 43.495C10.134 43.897 10.346 44.292 10.567 44.681C10.649 44.826 10.728 44.973 10.813 45.117C10.989 45.416 11.174 45.708 11.36 46ZM4.968 17H8.795C8.62 17.437 8.454 17.879 8.297 18.327C8.254 18.451 8.21 18.574 8.168 18.698C8.024 19.128 7.89 19.562 7.763 20H3.857C4.175 18.969 4.547 17.969 4.968 17ZM2.5 29C2.5 28.326 2.536 27.662 2.578 27H6.565C6.564 27.016 6.564 27.032 6.563 27.048C6.526 27.694 6.5 28.343 6.5 29C6.5 29.335 6.512 29.667 6.522 30H2.539C2.528 29.666 2.5 29.337 2.5 29ZM6.636 32C6.674 32.421 6.723 32.839 6.777 33.255C6.781 33.285 6.783 33.316 6.787 33.347C6.861 33.903 6.951 34.454 7.052 35H3.108C2.913 34.018 2.759 33.019 2.66 32H6.636ZM7.256 22C7.23 22.118 7.208 22.238 7.184 22.356C7.157 22.488 7.129 22.619 7.103 22.751C6.981 23.378 6.873 24.011 6.788 24.653C6.784 24.683 6.782 24.714 6.778 24.745C6.766 24.83 6.759 24.915 6.748 25H2.779C2.911 23.982 3.078 22.978 3.307 22H7.256ZM7.495 37C7.526 37.122 7.555 37.246 7.587 37.367C7.599 37.411 7.609 37.457 7.621 37.501C7.786 38.11 7.971 38.709 8.169 39.301C8.211 39.426 8.255 39.548 8.298 39.672C8.335 39.782 8.372 39.892 8.411 40H4.558C4.179 39.029 3.853 38.027 3.575 37H7.495ZM10.812 12.884C10.728 13.027 10.648 13.175 10.566 13.32C10.345 13.709 10.132 14.105 9.928 14.506C9.853 14.654 9.776 14.8 9.703 14.95C9.695 14.966 9.686 14.983 9.678 15H5.929C6.686 13.573 7.558 12.238 8.525 11H12.028C11.906 11.175 11.783 11.349 11.664 11.527C11.369 11.97 11.085 12.422 10.812 12.884ZM13.732 6H16.494C16.246 6.217 15.998 6.435 15.757 6.662C15.556 6.852 15.361 7.049 15.165 7.246C14.967 7.445 14.771 7.647 14.579 7.852C14.394 8.049 14.209 8.245 14.029 8.448C13.869 8.628 13.716 8.815 13.561 9H10.259C11.333 7.883 12.492 6.876 13.732 6ZM9.324 48H12.756C12.869 48.148 12.981 48.296 13.097 48.441C13.399 48.821 13.71 49.191 14.029 49.552C14.208 49.755 14.394 49.951 14.579 50.148C14.772 50.354 14.968 50.556 15.167 50.755C15.247 50.835 15.323 50.921 15.404 51H12.396C11.297 50.101 10.27 49.097 9.324 48ZM21.753 55.558C19.46 55.075 17.293 54.189 15.283 53H17.702C17.83 53.099 17.962 53.192 18.091 53.288C18.298 53.442 18.505 53.597 18.716 53.744C19.109 54.018 19.51 54.281 19.917 54.531C20.095 54.64 20.277 54.742 20.458 54.847C20.781 55.034 21.108 55.214 21.439 55.386C21.546 55.441 21.647 55.505 21.753 55.558ZM32 56C31.205 56 30.42 55.953 29.646 55.864L29.259 55.81C29.205 55.803 29.152 55.794 29.099 55.787C28.753 55.738 28.41 55.681 28.07 55.615C28.041 55.609 28.013 55.603 27.985 55.597C27.654 55.532 27.326 55.459 27.001 55.378C26.952 55.366 26.903 55.352 26.854 55.339C26.551 55.261 26.249 55.179 25.951 55.088C25.86 55.06 25.769 55.028 25.678 54.999C25.423 54.918 25.169 54.835 24.918 54.744C24.714 54.67 24.513 54.588 24.312 54.508C24.175 54.454 24.036 54.403 23.901 54.346C18.524 52.071 14.065 47.598 11.352 41.88C11.327 41.828 11.304 41.773 11.28 41.721C11.135 41.41 10.994 41.096 10.859 40.778C10.805 40.651 10.755 40.522 10.703 40.394C10.602 40.146 10.502 39.897 10.408 39.645C10.347 39.483 10.29 39.318 10.232 39.154C10.153 38.932 10.075 38.709 10.002 38.484C9.942 38.3 9.885 38.114 9.828 37.929C9.763 37.718 9.7 37.506 9.64 37.293C9.584 37.098 9.531 36.9 9.48 36.703C9.426 36.494 9.374 36.283 9.324 36.072C9.276 35.87 9.23 35.668 9.186 35.464C9.14 35.251 9.098 35.037 9.057 34.822C9.018 34.617 8.979 34.412 8.943 34.205C8.905 33.984 8.872 33.762 8.839 33.539C8.809 33.337 8.778 33.136 8.752 32.932C8.721 32.692 8.697 32.449 8.672 32.207C8.652 32.018 8.63 31.83 8.614 31.64C8.59 31.362 8.574 31.082 8.558 30.801C8.549 30.643 8.536 30.487 8.529 30.329C8.511 29.889 8.5 29.446 8.5 29C8.5 28.554 8.511 28.111 8.529 27.67C8.536 27.512 8.549 27.355 8.558 27.198C8.574 26.918 8.59 26.637 8.614 26.359C8.63 26.169 8.652 25.981 8.672 25.792C8.697 25.55 8.722 25.308 8.752 25.067C8.778 24.864 8.809 24.662 8.839 24.46C8.872 24.237 8.905 24.015 8.943 23.794C8.978 23.587 9.017 23.382 9.057 23.177C9.098 22.962 9.141 22.748 9.186 22.535C9.23 22.331 9.276 22.129 9.324 21.927C9.374 21.716 9.426 21.505 9.48 21.296C9.531 21.098 9.584 20.901 9.639 20.705C9.699 20.492 9.762 20.28 9.827 20.069C9.884 19.883 9.941 19.698 10.001 19.514C10.075 19.289 10.153 19.066 10.232 18.843C10.29 18.679 10.347 18.515 10.408 18.353C10.503 18.101 10.602 17.852 10.703 17.604C10.755 17.476 10.805 17.347 10.859 17.22C10.994 16.902 11.135 16.588 11.28 16.277C11.305 16.224 11.327 16.17 11.352 16.118C14.065 10.4 18.524 5.928 23.901 3.652C24.037 3.595 24.175 3.544 24.312 3.49C24.513 3.41 24.714 3.328 24.918 3.254C25.169 3.163 25.423 3.081 25.678 2.999C25.769 2.97 25.859 2.938 25.951 2.91C26.249 2.819 26.551 2.736 26.854 2.659C26.902 2.648 26.951 2.633 27 2.621C27.325 2.54 27.653 2.468 27.984 2.402C28.013 2.396 28.041 2.39 28.069 2.384C28.409 2.318 28.752 2.261 29.098 2.212C29.151 2.204 29.205 2.196 29.258 2.189L29.645 2.135C30.42 2.047 31.205 2 32 2C44.958 2 55.5 14.112 55.5 29C55.5 43.888 44.958 56 32 56Z" fill="#281A19"/>
<path d="M14.167 29C14.167 28.371 14.192 27.739 14.241 27.121C14.284 26.571 13.874 26.089 13.323 26.045C12.77 26.005 12.291 26.413 12.247 26.963C12.194 27.632 12.167 28.318 12.167 29V29.021C12.167 29.573 12.615 30.01 13.167 30.01C13.719 30.01 14.167 29.552 14.167 29Z" fill="#281A19"/>
<path d="M49.134 23.292C49.248 23.746 49.655 24.048 50.103 24.048C50.184 24.048 50.266 24.038 50.348 24.018C50.883 23.883 51.208 23.34 51.074 22.804C50.906 22.136 50.709 21.47 50.487 20.824C50.308 20.302 49.74 20.021 49.217 20.202C48.695 20.381 48.416 20.95 48.595 21.472C48.798 22.065 48.979 22.678 49.134 23.292Z" fill="#281A19"/>
<path d="M45.022 43.019C44.622 43.511 44.199 43.982 43.765 44.421C43.376 44.813 43.379 45.446 43.771 45.835C43.966 46.028 44.221 46.125 44.475 46.125C44.732 46.125 44.99 46.026 45.185 45.829C45.666 45.344 46.133 44.823 46.574 44.281C46.923 43.852 46.857 43.222 46.429 42.874C46.001 42.525 45.371 42.591 45.022 43.019Z" fill="#281A19"/>
<path d="M14.856 34.669C14.723 34.133 14.178 33.805 13.644 33.94C13.108 34.073 12.782 34.616 12.915 35.152C13.081 35.819 13.277 36.486 13.498 37.134C13.64 37.55 14.028 37.812 14.444 37.812C14.551 37.812 14.66 37.794 14.767 37.758C15.289 37.58 15.569 37.012 15.391 36.489C15.189 35.895 15.009 35.282 14.856 34.669Z" fill="#281A19"/>
<path d="M41.858 9.44899C41.274 9.06799 40.664 8.71699 40.046 8.40599C39.552 8.15599 38.952 8.35699 38.703 8.84799C38.454 9.34099 38.652 9.94299 39.145 10.191C39.698 10.47 40.243 10.784 40.766 11.125C40.934 11.235 41.124 11.287 41.311 11.287C41.638 11.287 41.958 11.127 42.15 10.833C42.451 10.371 42.321 9.75099 41.858 9.44899Z" fill="#281A19"/>
<path d="M39.254 47.753C38.698 48.038 38.124 48.293 37.548 48.51C37.031 48.704 36.77 49.281 36.965 49.798C37.116 50.199 37.496 50.446 37.901 50.446C38.018 50.446 38.137 50.425 38.254 50.381C38.901 50.137 39.545 49.852 40.168 49.532C40.659 49.28 40.854 48.677 40.601 48.186C40.348 47.695 39.745 47.5 39.254 47.753Z" fill="#281A19"/>
<path d="M47.7299 15.277C47.3409 14.702 46.9229 14.143 46.4869 13.614C46.1359 13.188 45.5049 13.126 45.0789 13.478C44.6529 13.829 44.5919 14.459 44.9429 14.886C45.3389 15.367 45.7189 15.876 46.0729 16.398C46.2659 16.684 46.5809 16.837 46.9019 16.837C47.0949 16.837 47.2899 16.781 47.4619 16.665C47.9199 16.355 48.0399 15.734 47.7299 15.277Z" fill="#281A19"/>
<path d="M50.833 27.968C50.281 27.968 49.833 28.448 49.833 29C49.833 29.613 49.809 30.232 49.762 30.838C49.72 31.389 50.131 31.87 50.682 31.912C50.708 31.914 50.734 31.915 50.76 31.915C51.277 31.915 51.716 31.517 51.756 30.992C51.807 30.334 51.833 29.664 51.833 28.999V28.934C51.833 28.383 51.386 27.968 50.833 27.968Z" fill="#281A19"/>
<path d="M49.9011 35.782C49.3771 35.606 48.8111 35.888 48.6341 36.411C48.4321 37.01 48.2031 37.605 47.9531 38.18C47.7331 38.686 47.9641 39.276 48.4711 39.496C48.6011 39.553 48.7371 39.579 48.8701 39.579C49.2561 39.579 49.6231 39.354 49.7871 38.978C50.0601 38.351 50.3101 37.701 50.5301 37.048C50.7071 36.525 50.4251 35.958 49.9011 35.782Z" fill="#281A19"/>
<path d="M34.049 6.59501C33.371 6.51601 32.682 6.47601 32 6.47601H31.958C31.406 6.47601 30.979 6.92401 30.979 7.47601C30.979 8.02801 31.448 8.47601 32 8.47601C32.605 8.47601 33.217 8.51101 33.819 8.58101C33.858 8.58601 33.897 8.58801 33.936 8.58801C34.436 8.58801 34.869 8.21301 34.928 7.70301C34.991 7.15401 34.598 6.65801 34.049 6.59501Z" fill="#281A19"/>
<path d="M17.9031 41.568C17.5941 41.109 16.9721 40.989 16.5151 41.298C16.0571 41.607 15.9361 42.228 16.2451 42.686C16.6331 43.261 17.0501 43.821 17.4841 44.351C17.6821 44.592 17.9691 44.717 18.2581 44.717C18.4811 44.717 18.7061 44.643 18.8921 44.49C19.3191 44.139 19.3811 43.51 19.0311 43.082C18.6361 42.602 18.2561 42.092 17.9031 41.568Z" fill="#281A19"/>
<path d="M15.547 18.465C15.04 18.245 14.452 18.474 14.23 18.981C13.955 19.61 13.704 20.259 13.483 20.909C13.306 21.432 13.586 22 14.109 22.178C14.215 22.214 14.324 22.231 14.43 22.231C14.847 22.231 15.236 21.968 15.377 21.552C15.579 20.955 15.81 20.36 16.062 19.782C16.285 19.276 16.054 18.686 15.547 18.465Z" fill="#281A19"/>
<path d="M32 49.524C31.378 49.524 30.753 49.487 30.142 49.414C29.597 49.356 29.096 49.74 29.03 50.289C28.965 50.837 29.356 51.335 29.905 51.401C30.595 51.483 31.301 51.525 32.001 51.525H32.087C32.639 51.525 33.044 51.077 33.044 50.525C33.044 49.973 32.552 49.524 32 49.524Z" fill="#281A19"/>
<path d="M18.8461 12.139C18.3651 12.624 17.8961 13.143 17.4551 13.684C17.1051 14.112 17.1691 14.742 17.5971 15.091C17.7831 15.243 18.0071 15.317 18.2291 15.317C18.5191 15.317 18.8061 15.192 19.0041 14.95C19.4051 14.459 19.8291 13.988 20.2651 13.55C20.6541 13.158 20.6521 12.525 20.2611 12.135C19.8691 11.746 19.2371 11.749 18.8461 12.139Z" fill="#281A19"/>
<path d="M25.789 7.60199C25.141 7.84499 24.496 8.12899 23.873 8.44699C23.381 8.69699 23.185 9.29999 23.436 9.79199C23.612 10.139 23.963 10.338 24.328 10.338C24.481 10.338 24.636 10.303 24.781 10.229C25.337 9.94599 25.912 9.69199 26.489 9.47599C27.006 9.28199 27.269 8.70599 27.075 8.18899C26.883 7.66999 26.305 7.40799 25.789 7.60199Z" fill="#281A19"/>
<path d="M24.8191 47.791C24.2691 47.512 23.7241 47.196 23.2001 46.853C22.7371 46.551 22.1191 46.681 21.8151 47.142C21.5131 47.604 21.6421 48.224 22.1041 48.526C22.6891 48.909 23.2981 49.262 23.9131 49.574C24.0581 49.648 24.2131 49.682 24.3651 49.682C24.7301 49.682 25.0811 49.482 25.2581 49.135C25.5081 48.643 25.3111 48.041 24.8191 47.791Z" fill="#281A19"/>
</svg>
