<svg width="515" height="515" viewBox="0 0 515 515" fill="none" xmlns="http://www.w3.org/2000/svg">
<g clip-path="url(#clip0_125_2)">
<path d="M409.533 278.4C413.933 278.4 417.133 281.6 416.333 286L379.533 501.6C378.733 506 374.733 510.4 370.333 510.4H145.133C140.733 510.4 136.333 506 135.933 501.6L132.733 482.4L102.733 306.4L99.133 286C98.333 281.6 101.533 278.4 105.933 278.4C105.933 278.4 409.533 278.4 409.533 278.4Z" fill="#C51100"/>
<path d="M404.733 106.8L401.933 108.8V106L391.133 102.8L385.533 122L339.933 276.8L381.533 276L409.133 181.6V181.2L411.133 175.6L429.133 114L404.733 106.8Z" fill="#F1B126"/>
<path d="M443.933 96.4L411.133 176.4L409.133 181.2V181.6L381.533 276L413.133 278L480.733 111.2L443.933 96.4Z" fill="#F1B126"/>
<path d="M386.733 27.6L374.733 68.4L363.133 107.6L351.133 149.2H350.733L333.533 276.8V278H339.933V276.8L385.533 122L391.133 102.8L401.933 106L404.733 106.8L424.733 38.8L386.733 27.6Z" fill="#F1B126"/>
<path d="M328.733 15.6L321.933 66.4L320.333 78.8L330.333 79.6L325.533 159.2L318.333 276.8V278H333.533V276.8L350.733 149.2L359.133 86.8L367.933 20.8L328.733 15.6Z" fill="#F1B126"/>
<path d="M320.333 78.8H318.733L290.733 77.2L288.333 118.8L280.733 240L278.733 276.8H318.333L325.533 159.2L330.333 79.6L320.333 78.8Z" fill="#F1B126"/>
<path d="M282.333 4L279.533 64.8L276.333 134.8L280.733 240L288.333 118.8L290.733 77.2L318.733 78.8L319.133 66.4L321.933 5.6L282.333 4Z" fill="#F1B126"/>
<path d="M238.733 63.2L235.533 40.4L231.533 21.6L193.933 26.4L196.333 47.2L206.733 127.2L223.533 125.2L229.933 185.2L239.933 276.8V278.4L265.933 278V275.2L238.733 63.2Z" fill="#F1B126"/>
<path d="M276.333 134.8L273.133 64.4L270.333 4L230.733 5.6L231.133 21.2L231.533 21.6L233.133 21.2L235.533 40.4L240.733 63.2H238.733L265.933 275.2V278L278.733 276.8L280.733 240L276.333 134.8Z" fill="#F1B126"/>
<path d="M229.933 185.2L223.533 125.2L206.733 127.2L183.933 129.6L192.333 207.6L199.933 276.8H239.933L229.933 185.2Z" fill="#F1B126"/>
<path d="M206.733 127.2L196.333 47.2V46.8L191.133 18L151.933 25.2L158.333 60L173.933 147.2L175.133 150.4L192.333 207.6L183.933 129.6L206.733 127.2Z" fill="#F1B126"/>
<path d="M199.933 276.8L192.333 207.6L175.133 150.4L174.733 151.6L173.933 147.2L147.133 59.6L139.933 36.4L101.933 48L118.333 102.4L145.133 190.4H144.733L177.933 276.8V278.4L199.933 276.8Z" fill="#F1B126"/>
<path d="M144.733 190.4L116.733 117.2L99.133 70.8L61.933 84.8L106.333 201.2L107.133 203.2L134.333 275.2L177.933 276.8L144.733 190.4Z" fill="#F1B126"/>
<path d="M134.333 275.2L107.133 203.2L105.933 214.8L106.333 201.2L69.133 134L34.333 153.2L99.133 271.2V271.6L103.133 275.2L105.933 278.4L134.333 278V275.2Z" fill="#F1B126"/>
<path d="M280.733 244C278.733 244 276.733 242.4 276.733 240L266.333 8L234.733 9.6L235.133 21.2C235.133 23.6 233.533 25.2 231.133 25.2C229.133 25.2 227.133 23.6 227.133 21.2L226.333 5.6C226.333 3.2 227.933 1.6 230.333 1.6L269.933 0C271.933 0 273.933 1.6 273.933 4L284.733 240C285.133 242 283.133 244 280.733 244C281.133 244 281.133 244 280.733 244Z" fill="black"/>
<path d="M276.333 138.8C275.933 138.8 275.933 138.8 276.333 138.8C273.933 138.8 272.333 136.8 272.333 134.8L278.733 4C278.733 2.8 279.133 2 279.933 1.2C280.733 0.4 281.933 0 282.733 0L322.333 2C324.733 2 326.333 4 326.333 6L322.733 78.8C322.733 81.2 320.733 82.8 318.733 82.8C316.333 82.8 314.733 80.8 314.733 78.8L317.933 9.6L286.333 8L280.333 134.8C279.933 136.8 278.333 138.8 276.333 138.8Z" fill="black"/>
<path d="M413.133 282C412.733 282 411.933 282 411.533 281.6C409.533 280.8 408.333 278.4 409.133 276.4L475.133 113.6L445.933 101.6L413.133 182.8C412.333 184.8 409.933 186 407.933 185.2C405.933 184.4 404.733 182 405.533 180L439.933 95.2C440.733 93.2 443.133 92 445.133 92.8L481.933 107.6C482.733 108 483.533 108.8 483.933 109.6C484.333 110.4 484.333 111.6 483.933 112.8L416.333 279.2C415.933 280.8 414.733 282 413.133 282Z" fill="black"/>
<path d="M350.733 153.2C350.333 153.2 349.933 153.2 349.533 153.2C347.533 152.4 346.333 150.4 346.733 148.4L382.333 27.2C383.133 25.2 385.133 24 387.133 24.4L425.133 35.6C427.133 36.4 428.333 38.4 427.933 40.4L407.933 108C407.133 110 405.133 111.2 403.133 110.8C401.133 110 399.933 108 400.333 106L419.133 42L388.733 33.2L354.333 150.8C354.333 152 352.733 153.2 350.733 153.2Z" fill="black"/>
<path d="M339.933 280.8C339.533 280.8 339.133 280.8 338.733 280.8C336.733 280 335.533 278 335.933 276L387.133 101.6C387.933 99.6 389.933 98.4 391.933 98.8L429.933 110C431.133 110.4 431.933 110.8 432.333 112C432.733 113.2 433.133 114 432.733 115.2L412.733 182.4L384.733 276.8C383.933 278.8 381.933 280 379.933 279.6C377.933 278.8 376.733 276.8 377.133 274.8L404.733 180.4V180L423.533 116.8L393.133 108L343.133 278.4C343.133 280 341.533 280.8 339.933 280.8Z" fill="black"/>
<path d="M333.533 280.8H333.133C331.133 280.4 329.533 278.4 329.533 276.4L363.533 24.4L331.933 20L323.933 79.2C323.533 81.2 321.533 82.8 319.533 82.8C317.533 82.4 315.933 80.4 315.933 78.4L324.333 15.2C324.333 14 325.133 13.2 325.933 12.4C326.733 11.6 327.933 11.6 328.733 11.6L367.933 16.8C369.933 17.2 371.533 19.2 371.533 21.2L336.733 277.2C337.133 279.6 335.533 280.8 333.533 280.8Z" fill="black"/>
<path d="M102.733 282C101.133 282 99.933 281.2 99.133 280L95.533 273.6V273.2L30.733 155.2C30.333 154.4 29.933 153.2 30.333 152C30.733 150.8 31.133 150 32.333 149.6L67.133 130.4C69.133 129.2 71.533 130 72.733 132L109.933 199.2C111.133 201.2 110.333 203.6 108.333 204.8C106.333 206 103.933 205.2 102.733 203.2L67.533 139.6L39.533 154.8L102.333 269.6V270L105.933 276C107.133 278 106.333 280.4 104.333 281.6C104.333 281.6 103.533 282 102.733 282Z" fill="black"/>
<path d="M177.533 280.8C175.933 280.8 174.333 280 173.933 278.4L96.733 76L67.133 87.2L138.333 273.6C139.133 275.6 137.933 278 135.933 278.8C133.933 279.6 131.533 278.4 130.733 276.4L58.333 86C57.933 85.2 57.933 84 58.333 82.8C58.733 82 59.533 81.2 60.733 80.8L97.933 66.8C99.933 66 102.333 67.2 103.133 69.2L181.533 275.2C182.333 277.2 181.133 279.6 179.133 280.4C178.733 280.8 178.333 280.8 177.533 280.8Z" fill="black"/>
<path d="M145.133 194.4C143.533 194.4 141.933 193.2 141.133 191.6L97.933 49.2C97.133 47.2 98.333 44.8 100.733 44.4L138.733 32.8C140.733 32 143.133 33.2 143.533 35.6L150.333 58.4C150.333 58.4 150.333 58.4 150.333 58.8L177.133 146.4C177.933 148.4 176.733 150.8 174.333 151.2C172.333 152 169.933 150.8 169.533 148.4L142.733 60.8C142.733 60.8 142.733 60.8 142.733 60.4L136.733 41.2L106.333 50.4L148.333 189.2C149.133 191.2 147.933 193.6 145.533 194C145.933 194.4 145.533 194.4 145.133 194.4Z" fill="black"/>
<path d="M192.333 211.6C190.733 211.6 189.133 210.4 188.333 208.8L170.733 151.6C169.933 149.6 171.133 147.2 173.533 146.8C175.533 146 177.933 147.2 178.333 149.6L195.933 206.8C196.733 208.8 195.533 211.2 193.133 211.6C193.133 211.6 192.733 211.6 192.333 211.6Z" fill="black"/>
<path d="M174.733 155.6C172.733 155.6 171.133 154.4 170.733 152.4L169.933 148.4L154.333 61.2V60.8L147.933 26.4C147.533 24.4 149.133 22 151.133 21.6L190.333 14.4C191.533 14.4 192.333 14.4 193.133 15.2C193.933 16 194.733 16.8 194.733 17.6L199.933 46.4C200.333 48.4 198.733 50.8 196.733 51.2C194.733 51.6 192.333 50 191.933 48L187.533 23.2L156.333 28.8L161.933 59.6V60L178.333 151.2C178.733 153.2 177.133 155.6 175.133 156C175.133 155.2 175.133 155.6 174.733 155.6Z" fill="black"/>
<path d="M265.933 279.2C263.933 279.2 262.333 277.6 261.933 275.6L229.533 25.6L197.933 29.6L210.333 126.4C210.733 128.4 209.133 130.4 206.733 130.8C204.733 131.2 202.733 129.6 202.333 127.2L189.133 26.4C189.133 25.2 189.133 24.4 189.933 23.6C190.733 22.8 191.533 22.4 192.733 22L231.933 16.8C233.133 16.8 233.933 16.8 234.733 17.6C235.533 18.4 235.933 19.2 236.333 20.4L269.133 274.4C269.533 276.4 267.933 278.4 265.533 278.8C266.333 279.2 266.333 279.2 265.933 279.2Z" fill="black"/>
<path d="M239.933 280.8C237.933 280.8 236.333 279.2 235.933 277.2L219.933 129.6L188.333 132.8L203.933 276C204.333 278 202.733 280 200.333 280.4C198.333 280.8 196.333 279.2 195.933 276.8L179.933 129.6C179.533 127.6 181.133 125.6 183.533 125.2L223.133 120.8C224.333 120.8 225.133 120.8 225.933 121.6C226.733 122.4 227.133 123.2 227.533 124.4L243.933 276C244.333 278 242.733 280 240.333 280.4C240.333 280.8 239.933 280.8 239.933 280.8Z" fill="black"/>
<path d="M318.333 280.8C315.933 280.8 314.333 278.8 314.333 276.4L325.933 82.8L294.333 80.8L282.333 276.8C282.333 279.2 280.333 280.8 277.933 280.4C275.533 280.4 273.933 278.4 274.333 276L286.333 76C286.333 73.6 288.333 72 290.733 72.4L330.333 74.8C331.533 74.8 332.333 75.2 333.133 76C333.933 76.8 334.333 78 334.333 78.8L322.333 276.4C322.333 279.2 320.333 280.8 318.333 280.8Z" fill="black"/>
<path d="M370.333 514.4H145.133C138.333 514.4 132.733 508 131.933 502.4L95.533 286.8C95.133 283.6 95.933 280.4 97.933 278.4C99.933 276 103.133 274.8 106.333 274.8H409.933C413.533 274.8 416.333 276 418.333 278.4C420.333 280.8 421.133 283.6 420.733 286.8L383.933 502.4C382.733 508.4 377.133 514.4 370.333 514.4ZM105.933 282.4C104.733 282.4 103.933 282.8 103.533 283.2C103.133 284 103.133 284.8 103.133 285.2L139.533 500.8C139.933 503.6 142.733 506.4 144.733 506.4H369.933C371.933 506.4 374.733 503.6 375.133 500.8L411.933 285.2C411.933 284.8 411.933 283.6 411.533 283.2C411.133 282.8 410.333 282.4 409.133 282.4H105.933V282.4Z" fill="black"/>
<path d="M408.333 310.4H164.333C161.933 310.4 160.333 308.8 160.333 306.4C160.333 304 161.933 302.4 164.333 302.4H408.333C410.733 302.4 412.333 304 412.333 306.4C412.333 308.8 410.333 310.4 408.333 310.4Z" fill="black"/>
<path d="M132.333 310.4H103.133C100.733 310.4 99.1331 308.8 99.1331 306.4C99.1331 304 100.733 302.4 103.133 302.4H132.333C134.733 302.4 136.333 304 136.333 306.4C136.333 308.8 134.333 310.4 132.333 310.4Z" fill="black"/>
<path d="M380.333 486.4H192.333C189.933 486.4 188.333 484.8 188.333 482.4C188.333 480 189.933 478.4 192.333 478.4H380.333C382.733 478.4 384.333 480 384.333 482.4C384.333 484.8 382.333 486.4 380.333 486.4Z" fill="black"/>
<path d="M160.333 486.4H132.733C130.333 486.4 128.733 484.8 128.733 482.4C128.733 480 130.333 478.4 132.733 478.4H160.333C162.733 478.4 164.333 480 164.333 482.4C164.333 484.8 162.333 486.4 160.333 486.4Z" fill="black"/>
</g>
<defs>
<clipPath id="clip0_125_2">
<rect width="514.4" height="514.4" fill="white"/>
</clipPath>
</defs>
</svg>
