<svg width="60" height="60" viewBox="0 0 60 60" fill="none" xmlns="http://www.w3.org/2000/svg">
<path d="M55 6.586V2.896C55 1.3 53.7 0 52.104 0H7.896C6.299 0 5 1.3 5 2.896V6.585L0 11.585V15V17V17.5C0 17.669 0.01 17.835 0.025 18H0V43V45V55V57V60H6V57H54V60H60V57V55V45V43V18H59.975C59.99 17.835 60 17.669 60 17.5V17V15V11.586L55 6.586ZM53.5 23H54V43H48.444C48.788 42.409 49 41.732 49 41C49 38.938 47.427 37.256 45.421 37.043C45.78 36.443 46 35.749 46 35C46 32.794 44.206 31 42 31C39.794 31 38 32.794 38 35C38 35.749 38.22 36.443 38.579 37.043C36.574 37.256 35 38.938 35 41C35 41.732 35.212 42.409 35.556 43H20V40H24C24.552 40 25 39.553 25 39C25 38.447 24.552 38 24 38H20H19.414L26.414 31L24.581 29.167C20.401 24.987 13.599 24.987 9.419 29.167L7.586 31L14.587 38H14H10C9.448 38 9 38.447 9 39C9 39.553 9.448 40 10 40H14V43H6V23H6.5C8.36 23 10.004 22.069 11 20.652C11.996 22.069 13.64 23 15.5 23H16.5C18.36 23 20.004 22.069 21 20.652C21.996 22.069 23.64 23 25.5 23C27.36 23 29.004 22.069 30 20.652C30.996 22.069 32.64 23 34.5 23C36.36 23 38.004 22.069 39 20.652C39.996 22.069 41.64 23 43.5 23H44.5C46.36 23 48.004 22.069 49 20.652C49.996 22.069 51.64 23 53.5 23ZM7 45H9V55H7V45ZM11 45H13V55H11V45ZM16 40H16.588L17.001 40.413L17.414 40H18V43H16V40ZM17 30C16.448 30 16 30.447 16 31V36.586L10.414 31L10.833 30.581C14.234 27.182 19.767 27.181 23.167 30.581L23.586 31L18 36.586V31C18 30.447 17.552 30 17 30ZM15 45H17V55H15V45ZM19 45H20H21V55H19V45ZM23 45H25V55H23V45ZM27 45H29V55H27V45ZM31 45H33V55H31V45ZM35 45H37V55H35V45ZM45 43C43.897 43 43 42.103 43 41C43 39.897 43.897 39 45 39C46.103 39 47 39.897 47 41C47 42.103 46.103 43 45 43ZM42 37C40.897 37 40 36.103 40 35C40 33.897 40.897 33 42 33C43.103 33 44 33.897 44 35C44 36.103 43.103 37 42 37ZM41 41C41 42.103 40.103 43 39 43C37.897 43 37 42.103 37 41C37 39.897 37.897 39 39 39C40.103 39 41 39.897 41 41ZM39 45H41V55H39V45ZM43 45H45V55H43V45ZM47 45H49V55H47V45ZM51 45H53V55H51V45ZM15 2H21V6.901L20.02 11.803L20.005 15H20H12V12.277L15 7.277V2ZM38 12.099V15H31V2H37V7L38 12.099ZM48 17.5C48 19.43 46.43 21 44.5 21H43.5C41.57 21 40 19.43 40 17.5V17H48V17.5ZM38 17.5C38 19.43 36.43 21 34.5 21C32.57 21 31 19.43 31 17.5V17H38V17.5ZM29 17.5C29 19.43 27.43 21 25.5 21C23.57 21 22 19.43 22 17.5V17H29V17.5ZM29 15H22V12.099L22.98 7.197L22.997 2H29V15ZM12 17H20V17.5C20 19.43 18.43 21 16.5 21H15.5C13.57 21 12 19.43 12 17.5V17ZM48 15H40V12L39 6.901V2H45V7.277L48 12.277V15ZM2 12.414L7 7.414V2.896C7 2.402 7.402 2 7.896 2H13V6.723L10 11.723V15H2V12.414ZM10 17V17.5C10 19.43 8.43 21 6.5 21H5.512L5.111 20.955C4.45 20.882 3.845 20.628 3.348 20.239C3.334 20.228 3.32 20.216 3.306 20.205C2.943 19.912 2.639 19.546 2.417 19.122C2.417 19.122 2.416 19.121 2.416 19.12C2.34 18.975 2.274 18.823 2.218 18.666L2.192 18.594C2.077 18.247 2 17.884 2 17.5V17H10ZM2 21.739C2.579 22.218 3.259 22.576 4 22.787V43H2V21.739ZM2 45H5V55H2V45ZM4 58H2V57H4V58ZM58 58H56V57H58V58ZM58 55H55V45H58V55ZM56 43V22.787C56.741 22.576 57.421 22.218 58 21.739V43H56ZM58 17.5C58 17.884 57.923 18.246 57.808 18.592L57.782 18.665C57.726 18.822 57.66 18.974 57.584 19.119C57.583 19.12 57.583 19.121 57.582 19.122C57.36 19.546 57.056 19.911 56.694 20.203C56.679 20.215 56.665 20.227 56.651 20.239C56.154 20.628 55.549 20.881 54.888 20.955L54.488 21H53.5C51.57 21 50 19.43 50 17.5V17H58V17.5ZM50 15V11.723L47 6.723V2H52.104C52.598 2 53 2.402 53 2.896V7.414L58 12.414V15H50Z" fill="#281A19"/>
</svg>
