<svg width="327" height="327" viewBox="0 0 327 327" fill="none" xmlns="http://www.w3.org/2000/svg">
<rect width="327" height="327" fill="white"/>
<path d="M207.862 172.124C207.885 172.06 224.822 132.499 223.939 132.039C223.082 131.588 212.135 153.961 204.158 169.108L201.653 167.791C208.605 152.107 219.401 129.657 218.517 129.206C217.661 128.755 206.017 150.749 197.544 165.646L195.038 164.334C202.473 148.89 213.957 126.814 213.096 126.363C212.231 125.912 199.867 147.533 190.906 162.17L188.387 160.844C196.323 145.67 208.509 123.962 207.652 123.511C206.782 123.051 188.738 151.874 183.827 159.518C179.549 166.201 179.836 175.486 185.307 180.469C177.818 193.567 170.342 206.65 162.858 219.743C155.177 206.664 147.496 193.576 139.811 180.497C148.754 173.572 150.248 159.828 142.913 149.091C135.219 137.615 119.133 124.873 109.553 129.684C100.273 135.055 102.091 155.496 107.471 168.224C112.423 180.242 124.746 186.542 135.429 182.861C142.932 198.031 150.43 213.197 157.924 228.362C154.644 234.107 151.364 239.847 148.079 245.596C109.293 238.343 79.9238 204.382 79.9238 163.5C79.9329 117.343 117.343 79.9283 163.5 79.9283C209.657 79.9283 247.067 117.339 247.067 163.495C247.067 204.65 217.297 238.771 178.123 245.705C174.716 239.906 171.313 234.111 167.914 228.312C175.203 213.142 182.478 197.972 189.767 182.793C196.892 184.592 204.395 180.141 207.839 172.105C211.447 163.696 207.853 172.124 207.862 172.124ZM171.194 255.162C168.639 255.376 166.097 255.554 163.5 255.554C160.648 255.554 157.833 255.381 155.045 255.126C153.455 258.433 151.865 261.736 150.284 265.048C154.621 265.613 159.017 266 163.5 266C167.778 266 171.978 265.649 176.123 265.139C174.483 261.818 172.839 258.492 171.194 255.162ZM163.5 61C106.984 61 61 106.984 61 163.5C61 211.306 93.9412 251.454 138.29 262.734C140.08 259.599 141.866 256.474 143.656 253.345C102.41 244.238 71.4413 207.438 71.4413 163.5C71.4413 112.737 112.737 71.4459 163.495 71.4459C214.253 71.4459 255.55 112.742 255.55 163.5C255.55 207.666 224.262 244.644 182.697 253.504C184.524 256.625 186.36 259.745 188.191 262.87C232.799 251.768 266 211.493 266 163.5C266 106.984 220.016 61 163.5 61ZM167.099 246.889C165.732 244.115 164.361 241.345 162.99 238.571C161.669 241.332 160.343 244.088 159.022 246.839C160.516 246.917 161.992 247.063 163.5 247.063C164.716 247.067 165.892 246.93 167.099 246.889Z" fill="black"/>
</svg>
