<svg width="60" height="60" viewBox="0 0 60 60" fill="none" xmlns="http://www.w3.org/2000/svg">
<path d="M55 21.293C54.448 21.293 54 21.74 54 22.293V23.293C54 23.846 54.448 24.293 55 24.293C55.552 24.293 56 23.846 56 23.293V22.293C56 21.74 55.552 21.293 55 21.293Z" fill="#281A19"/>
<path d="M55 13.127C54.448 13.127 54 13.574 54 14.127V16.46C54 17.013 54.448 17.46 55 17.46C55.552 17.46 56 17.013 56 16.46V14.127C56 13.574 55.552 13.127 55 13.127Z" fill="#281A19"/>
<path d="M54 8.293C54 8.846 54.448 9.293 55 9.293C55.552 9.293 56 8.846 56 8.293V6.293H54C53.448 6.293 53 6.74 53 7.293C53 7.846 53.448 8.293 54 8.293Z" fill="#281A19"/>
<path d="M18.2549 8.293H20.2969C20.8489 8.293 21.2969 7.846 21.2969 7.293C21.2969 6.74 20.8489 6.293 20.2969 6.293H18.2549C17.7029 6.293 17.2549 6.74 17.2549 7.293C17.2549 7.846 17.7029 8.293 18.2549 8.293Z" fill="#281A19"/>
<path d="M25.4041 8.293H27.4461C27.9981 8.293 28.4461 7.846 28.4461 7.293C28.4461 6.74 27.9981 6.293 27.4461 6.293H25.4041C24.8521 6.293 24.4041 6.74 24.4041 7.293C24.4041 7.846 24.8521 8.293 25.4041 8.293Z" fill="#281A19"/>
<path d="M32.553 8.293H34.595C35.147 8.293 35.595 7.846 35.595 7.293C35.595 6.74 35.147 6.293 34.595 6.293H32.553C32.001 6.293 31.553 6.74 31.553 7.293C31.553 7.846 32.001 8.293 32.553 8.293Z" fill="#281A19"/>
<path d="M46.8511 8.293H48.8931C49.4451 8.293 49.8931 7.846 49.8931 7.293C49.8931 6.74 49.4451 6.293 48.8931 6.293H46.8511C46.2991 6.293 45.8511 6.74 45.8511 7.293C45.8511 7.846 46.2991 8.293 46.8511 8.293Z" fill="#281A19"/>
<path d="M39.7019 8.293H41.7439C42.2959 8.293 42.7439 7.846 42.7439 7.293C42.7439 6.74 42.2959 6.293 41.7439 6.293H39.7019C39.1499 6.293 38.7019 6.74 38.7019 7.293C38.7019 7.846 39.1499 8.293 39.7019 8.293Z" fill="#281A19"/>
<path d="M11.106 8.293H13.148C13.7 8.293 14.148 7.846 14.148 7.293C14.148 6.74 13.7 6.293 13.148 6.293H11.106C10.554 6.293 10.106 6.74 10.106 7.293C10.106 7.846 10.554 8.293 11.106 8.293Z" fill="#281A19"/>
<path d="M5 9.293C5.552 9.293 6 8.846 6 8.293C6.552 8.293 7 7.846 7 7.293C7 6.74 6.552 6.293 6 6.293H4V8.293C4 8.846 4.448 9.293 5 9.293Z" fill="#281A19"/>
<path d="M5 16.505C5.552 16.505 6 16.058 6 15.505V13.444C6 12.891 5.552 12.444 5 12.444C4.448 12.444 4 12.891 4 13.444V15.505C4 16.058 4.448 16.505 5 16.505Z" fill="#281A19"/>
<path d="M5 38.142C5.552 38.142 6 37.695 6 37.142V35.081C6 34.528 5.552 34.081 5 34.081C4.448 34.081 4 34.528 4 35.081V37.142C4 37.694 4.448 38.142 5 38.142Z" fill="#281A19"/>
<path d="M5 23.717C5.552 23.717 6 23.27 6 22.717V20.656C6 20.103 5.552 19.656 5 19.656C4.448 19.656 4 20.103 4 20.656V22.717C4 23.27 4.448 23.717 5 23.717Z" fill="#281A19"/>
<path d="M5 30.929C5.552 30.929 6 30.482 6 29.929V27.868C6 27.315 5.552 26.868 5 26.868C4.448 26.868 4 27.315 4 27.868V29.929C4 30.481 4.448 30.929 5 30.929Z" fill="#281A19"/>
<path d="M7 43.293C7 42.74 6.552 42.293 6 42.293C6 41.74 5.552 41.293 5 41.293C4.448 41.293 4 41.74 4 42.293V44.293H6C6.552 44.293 7 43.846 7 43.293Z" fill="#281A19"/>
<path d="M27 42.293H25C24.448 42.293 24 42.74 24 43.293C24 43.846 24.448 44.293 25 44.293H27C27.552 44.293 28 43.846 28 43.293C28 42.74 27.552 42.293 27 42.293Z" fill="#281A19"/>
<path d="M11 44.293H13C13.552 44.293 14 43.846 14 43.293C14 42.74 13.552 42.293 13 42.293H11C10.448 42.293 10 42.74 10 43.293C10 43.846 10.448 44.293 11 44.293Z" fill="#281A19"/>
<path d="M20 42.293H18C17.448 42.293 17 42.74 17 43.293C17 43.846 17.448 44.293 18 44.293H20C20.552 44.293 21 43.846 21 43.293C21 42.74 20.552 42.293 20 42.293Z" fill="#281A19"/>
<path d="M33 42.293H32C31.448 42.293 31 42.74 31 43.293C31 43.846 31.448 44.293 32 44.293H33C33.552 44.293 34 43.846 34 43.293C34 42.74 33.552 42.293 33 42.293Z" fill="#281A19"/>
<path d="M60 2.293H0V48.293H38V57.707L45 50.707L52 57.707V48.293H60V2.293ZM50 52.879L45 47.879L40 52.879V48.293V41.944C40.012 41.951 40.026 41.956 40.038 41.963C41.502 42.804 43.194 43.293 45 43.293C46.806 43.293 48.498 42.804 49.962 41.963C49.974 41.956 49.988 41.952 50 41.944V48.293V52.879ZM50.293 39.275C50.136 39.414 49.975 39.545 49.809 39.67C49.777 39.694 49.746 39.718 49.713 39.742C49.548 39.863 49.379 39.977 49.207 40.084C49.168 40.108 49.128 40.132 49.089 40.156C48.921 40.257 48.749 40.352 48.575 40.439C48.525 40.464 48.474 40.488 48.424 40.512C48.256 40.592 48.087 40.667 47.914 40.735C47.848 40.761 47.781 40.784 47.714 40.808C47.553 40.867 47.39 40.923 47.225 40.971C47.136 40.997 47.046 41.018 46.956 41.04C46.808 41.078 46.66 41.115 46.51 41.144C46.383 41.169 46.253 41.185 46.123 41.203C46.005 41.22 45.888 41.241 45.768 41.252C45.515 41.276 45.258 41.291 44.999 41.291C44.74 41.291 44.483 41.276 44.23 41.252C44.111 41.24 43.994 41.22 43.875 41.203C43.746 41.185 43.616 41.168 43.488 41.144C43.338 41.115 43.19 41.077 43.042 41.04C42.952 41.017 42.862 40.996 42.773 40.971C42.608 40.923 42.446 40.867 42.284 40.808C42.217 40.784 42.15 40.761 42.084 40.735C41.912 40.667 41.742 40.592 41.574 40.512C41.523 40.488 41.473 40.464 41.423 40.439C41.248 40.351 41.077 40.256 40.909 40.156C40.869 40.132 40.83 40.109 40.791 40.084C40.619 39.977 40.45 39.863 40.285 39.742C40.253 39.718 40.221 39.695 40.189 39.67C40.024 39.545 39.862 39.413 39.705 39.275C38.051 37.809 37 35.674 37 33.293C37 28.882 40.589 25.293 45 25.293C49.411 25.293 53 28.882 53 33.293C53 35.674 51.949 37.809 50.293 39.275ZM58 46.293H52V40.422C53.849 38.606 55 36.083 55 33.293C55 27.779 50.514 23.293 45 23.293C39.486 23.293 35 27.779 35 33.293C35 36.083 36.151 38.607 38 40.422V46.293H2V4.293H58V46.293Z" fill="#281A19"/>
<path d="M12.182 15.065C11.571 15.787 11.288 16.711 11.388 17.668C11.49 18.647 11.994 19.555 12.771 20.159L15 21.893V27.331C13.839 26.917 13 25.817 13 24.515C13 23.962 12.552 23.515 12 23.515C11.448 23.515 11 23.962 11 24.515C11 26.929 12.721 28.949 15 29.414V30.292C15 30.845 15.448 31.292 16 31.292C16.552 31.292 17 30.845 17 30.292V29.41C18.091 29.188 19.085 28.609 19.819 27.742C20.43 27.018 20.712 26.094 20.612 25.137C20.509 24.159 20.006 23.252 19.229 22.649L17 20.916V15.478C18.161 15.892 19 16.992 19 18.294C19 18.847 19.448 19.294 20 19.294C20.552 19.294 21 18.847 21 18.294C21 15.88 19.279 13.86 17 13.395V12.294C17 11.741 16.552 11.294 16 11.294C15.448 11.294 15 11.741 15 12.294V13.398C13.909 13.62 12.915 14.198 12.182 15.065ZM18.001 24.228C18.35 24.499 18.577 24.908 18.623 25.346C18.666 25.756 18.548 26.149 18.292 26.451C17.944 26.862 17.494 27.15 17 27.326V23.448L18.001 24.228ZM13.999 18.581C13.649 18.309 13.423 17.9 13.377 17.461C13.335 17.052 13.452 16.66 13.708 16.357C14.056 15.946 14.506 15.658 15 15.482V19.359L13.999 18.581Z" fill="#281A19"/>
<path d="M25 17.293H48C48.552 17.293 49 16.846 49 16.293C49 15.74 48.552 15.293 48 15.293H25C24.448 15.293 24 15.74 24 16.293C24 16.846 24.448 17.293 25 17.293Z" fill="#281A19"/>
<path d="M25 23.293H36C36.552 23.293 37 22.846 37 22.293C37 21.74 36.552 21.293 36 21.293H25C24.448 21.293 24 21.74 24 22.293C24 22.846 24.448 23.293 25 23.293Z" fill="#281A19"/>
<path d="M25 29.293H33C33.552 29.293 34 28.846 34 28.293C34 27.74 33.552 27.293 33 27.293H25C24.448 27.293 24 27.74 24 28.293C24 28.846 24.448 29.293 25 29.293Z" fill="#281A19"/>
<path d="M11 36.293H32C32.552 36.293 33 35.846 33 35.293C33 34.74 32.552 34.293 32 34.293H11C10.448 34.293 10 34.74 10 35.293C10 35.846 10.448 36.293 11 36.293Z" fill="#281A19"/>
</svg>
